<?xml version="1.0" standalone="no"?>
<!DOCTYPE svg PUBLIC "-//W3C//DTD SVG 20010904//EN"
 "http://www.w3.org/TR/2001/REC-SVG-20010904/DTD/svg10.dtd">
<svg version="1.0" xmlns="http://www.w3.org/2000/svg"
 width="1024.000000pt" height="1024.000000pt" viewBox="0 0 1024.000000 1024.000000"
 preserveAspectRatio="xMidYMid meet">
<metadata>
Created by potrace 1.14, written by Peter Selinger 2001-2017
</metadata>
<g transform="translate(0.000000,1024.000000) scale(0.100000,-0.100000)"
fill="#000000" stroke="none">
<path d="M5765 7974 c-11 -3 -60 -11 -110 -20 -246 -42 -491 -131 -657 -237
-110 -70 -309 -256 -410 -382 -61 -77 -134 -186 -143 -216 -11 -35 -22 -20
-50 71 -34 112 -44 267 -22 348 11 41 11 50 1 41 -25 -21 -221 -274 -239 -309
-10 -19 -39 -66 -65 -105 -52 -78 -123 -215 -163 -315 -14 -36 -32 -78 -40
-93 -8 -15 -27 -77 -43 -137 -18 -72 -32 -110 -41 -110 -47 0 -205 -112 -318
-225 -195 -196 -269 -364 -305 -695 -15 -137 -15 -138 -43 -113 -31 28 -92 63
-109 63 -28 0 -116 -105 -162 -195 -72 -141 -97 -246 -121 -520 -19 -214 -19
-488 0 -628 26 -194 67 -309 150 -417 53 -68 70 -84 144 -129 l58 -36 -14 -45
c-19 -65 -79 -320 -97 -420 -40 -220 -45 -531 -12 -702 33 -165 145 -413 211
-468 16 -14 17 -12 10 28 -5 34 -4 42 8 42 17 0 77 65 77 83 0 21 -47 183 -60
207 -15 28 -15 186 0 385 22 296 30 401 34 425 3 14 9 66 16 115 13 106 50
297 59 307 3 4 56 10 116 13 256 13 517 83 776 208 63 30 134 64 159 75 25 12
63 38 85 59 l39 38 -63 3 c-35 2 -85 -1 -110 -7 -28 -6 -47 -6 -49 0 -2 5 -18
9 -36 9 -56 0 -156 13 -156 19 0 4 35 27 78 50 84 47 187 119 315 220 158 125
219 186 346 350 24 31 54 69 68 85 24 29 25 48 1 28 -20 -15 -173 -59 -268
-76 -73 -13 -163 -26 -355 -51 l-40 -6 40 22 c244 131 393 256 845 708 265
265 437 456 525 580 17 23 47 65 68 93 21 27 37 51 35 53 -2 2 -76 -18 -163
-45 -225 -70 -390 -101 -308 -60 60 31 161 99 233 158 73 59 250 244 250 261
0 5 18 42 41 81 22 40 47 90 55 112 7 22 30 74 49 115 20 42 34 80 33 85 -2 5
-41 -11 -88 -36 -47 -24 -96 -47 -108 -51 -13 -4 -33 -16 -43 -26 -11 -11 -24
-17 -29 -14 -4 3 -20 1 -34 -5 -38 -14 -32 -6 23 33 45 33 165 140 198 177 56
63 76 100 116 210 52 146 63 190 47 190 -20 0 -330 -326 -330 -347 0 -12 8 -9
33 10 63 51 107 80 113 74 7 -7 -41 -77 -96 -140 -134 -151 -404 -309 -629
-367 -23 -6 -41 -13 -39 -16 16 -15 453 55 530 85 59 23 107 33 129 26 21 -7
22 -6 11 8 -14 16 -10 21 31 36 24 10 26 9 18 -12 -5 -12 -23 -46 -40 -75
-157 -267 -343 -433 -621 -557 -47 -21 -119 -55 -161 -76 -43 -21 -99 -43
-125 -50 -90 -22 -74 -31 41 -24 223 13 336 26 479 55 80 17 151 30 158 30 13
0 -541 -554 -722 -721 -322 -297 -420 -367 -725 -515 -258 -126 -313 -172
-197 -161 130 11 492 48 562 57 79 10 94 13 196 34 74 16 75 8 2 -49 -28 -22
-88 -71 -133 -110 -45 -38 -101 -83 -124 -100 -24 -16 -60 -44 -80 -61 -86
-73 -192 -143 -443 -293 -16 -9 -28 -18 -28 -21 0 -11 156 -42 320 -63 21 -3
17 -7 -30 -30 -56 -27 -178 -73 -285 -109 -144 -47 -485 -98 -485 -71 0 12 97
356 115 408 92 262 172 475 249 660 134 324 162 388 266 600 56 116 122 251
146 302 83 173 209 407 327 608 107 182 332 529 372 571 5 7 28 35 50 64 62
81 206 249 265 308 82 82 54 70 -37 -16 -111 -105 -259 -266 -355 -387 -44
-55 -88 -109 -97 -120 -108 -134 -360 -488 -521 -734 -36 -54 -73 -111 -84
-125 -10 -15 -17 -29 -14 -31 2 -3 18 13 34 36 51 71 68 88 43 44 -12 -22 -32
-59 -45 -81 -23 -43 -58 -93 -131 -186 -44 -56 -88 -131 -149 -253 -19 -38
-41 -81 -49 -95 -59 -104 -243 -507 -290 -635 -18 -49 -54 -144 -80 -210 -61
-154 -114 -311 -171 -505 -25 -85 -48 -158 -51 -163 -11 -19 -102 55 -145 118
-33 50 -71 169 -95 300 -14 80 -18 149 -17 350 1 425 53 714 156 857 25 36 34
35 42 -5 9 -46 67 -165 101 -205 33 -39 74 -62 111 -62 26 0 26 2 20 43 -28
192 -7 449 55 685 33 123 115 268 208 366 49 51 191 169 197 163 2 -2 0 -19
-5 -38 -15 -60 -31 -191 -34 -269 -2 -74 14 -140 35 -140 24 0 129 75 133 94
2 12 6 66 10 120 12 211 68 492 125 636 12 30 29 75 37 100 24 71 118 257 177
349 l54 84 12 -74 c15 -95 52 -212 103 -319 l39 -85 13 45 c12 47 113 253 149
305 105 151 316 370 421 436 28 17 59 39 70 49 33 29 172 98 271 135 161 60
453 118 570 112 l41 -2 -29 -70 c-83 -198 -180 -496 -208 -639 -11 -55 -24
-104 -29 -110 -10 -14 -33 -107 -28 -113 12 -12 74 71 109 147 59 127 53 111
153 405 19 55 52 147 75 205 82 210 83 213 71 243 l-11 27 -147 -1 c-82 -1
-157 -3 -168 -5z m-1966 -1588 c-15 -17 -20 0 -12 45 l7 44 7 -40 c4 -22 3
-44 -2 -49z m225 -730 c-3 -8 -53 -108 -111 -223 -108 -213 -183 -373 -268
-568 -26 -60 -55 -128 -65 -150 -94 -208 -265 -697 -315 -900 -22 -92 -30
-111 -46 -112 -10 -1 -19 1 -19 4 0 13 83 283 130 423 67 201 125 354 215 570
86 207 92 221 217 479 100 209 295 564 262 477z m-812 -2081 c3 -3 1 -29 -4
-58 -71 -438 -87 -589 -97 -890 -8 -268 -19 -309 -45 -170 -40 216 -44 309
-25 528 19 225 112 595 149 595 9 0 19 -2 22 -5z m-35 -547 c-3 -7 -5 -2 -5
12 0 14 2 19 5 13 2 -7 2 -19 0 -25z"/>
<path d="M5190 7280 c-9 -6 -10 -10 -3 -10 6 0 15 5 18 10 8 12 4 12 -15 0z"/>
<path d="M6710 5169 c-107 -4 -337 -12 -510 -18 -173 -6 -398 -13 -500 -16
l-185 -5 -38 -42 c-140 -155 -267 -515 -296 -843 -31 -337 -33 -408 -18 -483
8 -40 11 -74 8 -76 -10 -6 -189 13 -280 29 -47 9 -168 32 -269 51 l-183 36
-34 -24 c-22 -14 -46 -47 -66 -88 -28 -55 -33 -78 -37 -160 -11 -224 69 -396
213 -458 49 -21 580 -40 1480 -52 836 -11 889 -9 957 26 46 24 119 104 151
166 26 51 59 168 72 253 5 35 4 37 -6 18 -7 -13 -15 -23 -19 -23 -3 0 -11 37
-18 83 -6 45 -18 129 -26 187 -33 223 -39 403 -21 586 9 93 18 171 20 173 2 2
51 -2 108 -9 141 -17 190 -6 254 59 88 88 134 229 113 349 -19 112 -77 200
-158 241 -104 53 -203 59 -712 40z m350 -167 c0 -5 -13 -21 -29 -36 -50 -48
-97 -209 -126 -431 -8 -60 -14 -115 -15 -121 0 -7 -15 -8 -47 -3 -64 10 -509
10 -648 -1 -60 -4 -166 -14 -235 -20 -69 -6 -198 -12 -287 -13 -157 -2 -162
-3 -172 -24 -6 -12 -7 -24 -3 -27 26 -16 110 -15 333 3 423 34 660 44 814 37
129 -6 144 -5 139 8 -5 13 3 16 50 16 l57 0 -8 -52 c-18 -120 3 -681 33 -859
l6 -35 -92 -47 c-51 -26 -99 -47 -106 -47 -22 0 -18 134 6 205 11 32 20 69 20
82 0 14 4 21 10 18 14 -9 12 12 -5 45 -32 62 -131 93 -438 134 -101 14 -203
28 -225 32 -29 4 -42 3 -42 -5 0 -6 5 -11 10 -11 6 0 10 -4 10 -10 0 -6 -64
-10 -172 -10 -95 0 -227 -5 -293 -11 -84 -7 -121 -7 -123 0 -5 14 -42 -5 -42
-21 0 -8 35 -9 118 -4 292 16 485 19 478 7 -9 -13 -5 -15 109 -35 50 -9 110
-21 135 -26 25 -5 63 -12 85 -16 34 -5 37 -7 20 -16 -25 -15 -139 -43 -260
-65 -165 -30 -719 -22 -752 10 -1 2 -3 111 -3 243 -1 251 11 426 36 559 21
112 88 304 141 406 l45 86 87 7 c47 3 223 11 391 16 476 15 854 31 859 36 8 8
131 4 131 -4z m-863 -1208 c-3 -3 -12 -4 -19 -1 -8 3 -5 6 6 6 11 1 17 -2 13
-5z m118 -13 c26 -6 31 -9 15 -9 -14 -1 -43 3 -65 7 -26 6 -31 9 -15 9 14 1
43 -3 65 -7z m82 -17 c-3 -3 -12 -4 -19 -1 -8 3 -5 6 6 6 11 1 17 -2 13 -5z
m46 -11 c-7 -2 -19 -2 -25 0 -7 3 -2 5 12 5 14 0 19 -2 13 -5z m-1753 -178
c150 -27 488 -82 535 -87 21 -2 29 1 27 11 -2 11 10 13 70 7 40 -4 97 -9 126
-12 30 -3 64 -9 77 -14 15 -6 27 -6 30 0 8 14 45 13 45 -1 0 -7 63 -9 208 -6
345 9 433 18 625 69 43 11 80 19 82 16 3 -2 0 -22 -6 -44 -7 -22 -9 -82 -7
-139 4 -80 11 -112 32 -159 l26 -59 -192 7 c-106 4 -535 11 -953 16 -418 5
-780 14 -804 19 -82 17 -116 100 -115 277 1 62 5 117 8 123 4 6 17 9 29 6 12
-3 83 -16 157 -30z m2381 -151 c29 -14 30 -17 16 -37 -30 -46 -102 -48 -127
-3 -10 21 -11 28 0 41 16 19 73 19 111 -1z"/>
<path d="M6285 4719 c-186 -11 -173 -9 -150 -19 13 -6 15 -9 5 -9 -8 -1 -26
-4 -40 -6 -21 -5 -22 -4 -5 4 41 19 -14 23 -131 11 -87 -9 -118 -9 -129 0 -8
6 -24 10 -37 8 -20 -3 -23 -9 -24 -46 l0 -43 70 5 c39 4 150 13 246 22 96 9
294 19 440 23 l265 6 0 25 0 25 -200 0 c-110 1 -249 -2 -310 -6z m-240 -39
c-44 -11 -67 -11 -60 0 3 6 25 9 48 9 40 -1 40 -2 12 -9z m-218 -32 c-3 -7 -5
-2 -5 12 0 14 2 19 5 13 2 -7 2 -19 0 -25z"/>
<path d="M6130 4140 c-25 -5 -117 -9 -205 -9 -164 0 -205 -5 -205 -25 0 -8 -2
-8 -8 1 -10 16 -242 30 -242 15 0 -28 47 -35 253 -35 186 0 211 2 222 17 16
22 87 14 121 -13 21 -17 30 -18 57 -8 33 11 434 16 574 7 53 -3 76 -1 85 9 11
11 9 12 -7 7 -11 -3 -27 -1 -35 4 -12 7 -8 10 14 10 24 0 27 3 18 13 -16 15
-569 21 -642 7z"/>
<path d="M6993 3412 c-26 -4 -29 -17 -9 -38 19 -19 26 -18 26 4 0 14 2 14 9 3
8 -12 12 -12 25 2 21 20 20 31 -1 23 -9 -4 -19 -3 -22 1 -3 5 -16 7 -28 5z"/>
<path d="M9920 80 l0 -80 160 0 160 0 0 80 0 80 -160 0 -160 0 0 -80z"/>
</g>
</svg>
